PathFileType	4	(X/Y/Z)	C:/Users/opensim2020/Desktop/walking_exp_matlab/subject06_walking19_straight_02.trc																																																																																																																																																	
DataRate	CameraRate	NumFrames	NumMarkers	Units	OrigDataRate	OrigDataStartFrame	OrigNumFrames																																																																																																																																													
100	100	7	49	mm	100	2193	332																																																																																																																																													
Frame#	Time	LFHD			RFHD			LBHD			RBHD			C7			T10			CLAV			STRN			RBAK			LSHO			LUPA			LELB			LFRM			LWRA			LWRB			LFIN			RSHO			RUPA			RELB			RFRM			RWRA			RWRB			RFIN			LASI			RASI			LPSI			RPSI			LTHI			LKNE			LTIB			LANK			LHEE			LTOE			RTHI			RKNE			RTIB			RANK			RHEE			RTOE			*39			*40			*41			*42			*43			*44			*45			*46			*47			*48		
		X1	Y1	Z1	X2	Y2	Z2	X3	Y3	Z3	X4	Y4	Z4	X5	Y5	Z5	X6	Y6	Z6	X7	Y7	Z7	X8	Y8	Z8	X9	Y9	Z9	X10	Y10	Z10	X11	Y11	Z11	X12	Y12	Z12	X13	Y13	Z13	X14	Y14	Z14	X15	Y15	Z15	X16	Y16	Z16	X17	Y17	Z17	X18	Y18	Z18	X19	Y19	Z19	X20	Y20	Z20	X21	Y21	Z21	X22	Y22	Z22	X23	Y23	Z23	X24	Y24	Z24	X25	Y25	Z25	X26	Y26	Z26	X27	Y27	Z27	X28	Y28	Z28	X29	Y29	Z29	X30	Y30	Z30	X31	Y31	Z31	X32	Y32	Z32	X33	Y33	Z33	X34	Y34	Z34	X35	Y35	Z35	X36	Y36	Z36	X37	Y37	Z37	X38	Y38	Z38	X39	Y39	Z39	X40	Y40	Z40	X41	Y41	Z41	X42	Y42	Z42	X43	Y43	Z43	X44	Y44	Z44	X45	Y45	Z45	X46	Y46	Z46	X47	Y47	Z47	X48	Y48	Z48	X49	Y49	Z49
																																																																																																																																																				
1	0	-1205.93481	1662.08948	919.20453	-1207.55017	1657.9856	1051.77649	-1341.01587	1611.04517	920.86151	-1340.41235	1612.18884	1050.23792	-1345.76868	1455.46155	976.09833	-1383.54443	1126.91296	994.33563	-1236.7002	1377.8855	991.48999	-1198.73987	1200.40796	994.71289	-1427.58728	1286.25098	1051.40015	-1268.48364	1405.8512	823.80255	-1248.48462	1204.33704	750.92273	-1238.11951	1092.51477	734.95642	-1180.05762	954.15094	711.99591	-1092.49084	859.23859	751.33679	-1151.07056	838.12103	716.81824	-1089.89612	770.84155	714.17297	-1300.15918	1412.80396	1145.69055	-1353.23145	1218.06726	1233.29333	-1349.58679	1096.18909	1248.10645	-1334.0553	977.367	1267.73169	-1268.04346	839.90192	1241.79688	-1325.41028	840.1358	1278.01416	-1286.28821	765.45984	1283.71545	-1209.19019	957.79846	901.78687	-1219.31738	973.04236	1123.14905	-1367.48755	993.95648	923.08521	-1369.47217	998.53217	1091.23022	-1304.4303	648.04913	855.51001	-1327.09875	485.78146	880.69403	-1382.38184	234.28224	901.09137	-1388.65979	63.28869	955.43146	-1427.98499	50.25574	1000.4928	-1242.79089	34.09101	960.1178	-1222.35815	645.78851	1199.09082	-1182.91748	526.6001	1175.39307	-1212.151	265.11429	1177.7489	-1214.24902	77.03641	1139.24866	-1248.67249	50.00997	1091.80334	-1061.59558	43.0658	1143.15149	-1305.93152	1705.85449	975.53271	NaN	NaN	NaN	NaN	NaN	NaN	NaN	NaN	NaN	NaN	NaN	NaN	NaN	NaN	NaN	NaN	NaN	NaN	NaN	NaN	NaN	NaN	NaN	NaN	NaN	NaN	NaN
2	0.01	-1202.12122	1661.90747	919.31909	-1203.26746	1657.85144	1051.81873	-1337.40173	1610.36084	921.23102	-1335.95471	1611.45825	1050.80042	-1340.91541	1455.12891	976.5415	-1379.11865	1126.68481	994.66193	-1231.79187	1377.44727	991.6579	-1194.17236	1199.92493	994.43896	-1422.70691	1286.00256	1051.91553	-1263.95728	1405.55603	824.04327	-1243.90747	1203.98926	751.33893	-1233.32312	1092.16638	735.25775	-1173.99548	954.31958	712.96338	-1085.19189	860.70306	752.487	-1143.79688	838.59039	718.57227	-1082.05981	771.78601	716.3418	-1294.88501	1412.24585	1146.0293	-1348.36133	1217.61023	1233.58252	-1345.07678	1095.68835	1248.22388	-1329.91675	976.77429	1267.68506	-1264.35852	838.91589	1241.52612	-1321.8728	839.5343	1277.84973	-1282.93469	764.63043	1283.41223	-1205.12073	957.31738	901.34497	-1214.49231	972.8172	1122.90894	-1363.32813	993.54736	923.28302	-1364.70166	998.26587	1091.41296	-1301.08203	647.7406	855.4187	-1324.10095	485.54471	880.77606	-1380.85291	234.29773	901.21094	-1388.39014	63.40437	955.6839	-1427.85535	50.58878	1000.83136	-1242.65955	34.01247	960.23944	-1216.94312	646.7085	1198.29102	-1176.96289	526.89789	1174.12793	-1201.54773	264.82214	1177.16553	-1199.11096	76.67166	1138.96924	-1232.77234	49.30883	1091.34839	-1045.88257	44.87924	1144.65088	-1302.16309	1705.27649	975.9715	NaN	NaN	NaN	NaN	NaN	NaN	NaN	NaN	NaN	NaN	NaN	NaN	NaN	NaN	NaN	NaN	NaN	NaN	NaN	NaN	NaN	NaN	NaN	NaN	NaN	NaN	NaN
3	0.02	-1198.38428	1661.70215	919.44629	-1198.9364	1657.70874	1051.92297	-1333.4856	1609.58704	921.84277	-1331.39026	1610.66895	1051.43665	-1336.05908	1454.76428	977.09326	-1374.57397	1126.42053	994.96564	-1226.79016	1377.00232	991.83331	-1189.65356	1199.25671	994.21466	-1417.80457	1285.74365	1052.46741	-1259.50171	1405.27576	824.3642	-1239.64856	1203.69055	751.64325	-1228.73535	1091.8623	735.61584	-1167.9032	954.43341	713.97253	-1077.74341	862.37488	753.72046	-1136.26563	839.10992	720.59863	-1074.05054	772.89679	718.71118	-1289.55225	1411.64697	1146.43115	-1343.44836	1217.10803	1233.83936	-1340.48352	1095.12219	1248.34009	-1325.729	976.09204	1267.64136	-1260.88501	838.13989	1241.33533	-1318.22437	838.75928	1277.63757	-1279.65637	763.75824	1283.12842	-1200.93884	956.89691	900.97577	-1209.45886	972.36383	1122.61292	-1359.08801	993.09851	923.46765	-1359.88708	997.88843	1091.57996	-1297.55054	647.37262	855.53967	-1321.07593	485.24417	880.91925	-1379.20203	234.22429	901.33435	-1388.17395	63.43975	955.86011	-1427.68982	50.69202	1001.01025	-1242.52283	33.93929	960.35217	-1211.30981	646.59558	1197.45557	-1171.08228	527.17822	1172.86621	-1191.26489	264.53543	1176.57153	-1184.60547	76.659	1138.78235	-1216.91345	48.6198	1090.53198	-1030.54797	46.93144	1146.53296	-1298.3562	1704.65442	976.47162	NaN	NaN	NaN	NaN	NaN	NaN	NaN	NaN	NaN	NaN	NaN	NaN	NaN	NaN	NaN	NaN	NaN	NaN	NaN	NaN	NaN	NaN	NaN	NaN	NaN	NaN	NaN
4	0.03	-1194.47217	1661.43457	919.69604	-1194.54492	1657.47314	1052.13025	-1329.32153	1608.72607	922.58557	-1326.79333	1609.86682	1052.15796	-1331.15735	1454.33337	977.70679	-1369.99402	1126.125	995.34546	-1221.75037	1376.52576	992.12445	-1184.95374	1198.73914	994.11133	-1412.87524	1285.44897	1053.1123	-1254.97217	1404.97278	824.71393	-1235.56091	1203.45251	751.86694	-1224.21826	1091.51318	736.02118	-1161.91272	954.67749	715.08966	-1070.51013	864.10541	755.24249	-1128.81165	839.84424	722.47876	-1065.70532	774.16913	721.29041	-1284.14917	1411.02051	1146.88318	-1338.4801	1216.5437	1234.15393	-1335.84216	1094.49866	1248.47998	-1321.5575	975.4248	1267.67346	-1257.198	836.95154	1241.03394	-1314.67786	838.07025	1277.56274	-1276.36572	762.85046	1282.87561	-1196.67163	956.37103	900.65875	-1204.43066	971.91229	1122.40503	-1354.69702	992.57397	923.61322	-1354.96899	997.44659	1091.78455	-1294.03198	646.98901	855.7149	-1318.02759	484.84506	881.28491	-1377.50574	234.2018	901.46167	-1388.10632	63.66274	956.08386	-1427.51758	50.98797	1001.38916	-1242.38501	33.84739	960.46613	-1206.00183	646.54797	1196.96289	-1165.37231	527.46033	1171.5929	-1181.28552	264.26172	1175.90112	-1170.17969	76.55861	1138.33887	-1201.29285	48.11616	1089.64331	-1015.47955	48.92246	1148.32239	-1294.46899	1703.9845	977.01648	NaN	NaN	NaN	NaN	NaN	NaN	NaN	NaN	NaN	NaN	NaN	NaN	NaN	NaN	NaN	NaN	NaN	NaN	NaN	NaN	NaN	NaN	NaN	NaN	NaN	NaN	NaN
5	0.04	-1190.71973	1661.27124	919.9303	-1190.13745	1657.26318	1052.41638	-1325.18713	1607.89014	923.38898	-1322.2511	1609.01355	1053.13611	-1326.229	1453.90918	978.3623	-1365.31116	1125.78821	995.74182	-1216.63892	1376.05505	992.40533	-1180.26514	1198.21265	994.01141	-1407.85986	1285.09729	1053.76526	-1250.43921	1404.67493	825.08453	-1231.14941	1203.13037	752.33423	-1219.79895	1091.14966	736.43872	-1155.83325	954.96918	716.45172	-1063.16882	866.05096	757.05469	-1121.03723	840.66138	724.68085	-1057.26636	775.78821	724.00836	-1278.73083	1410.33997	1147.3949	-1333.2948	1215.79468	1234.34399	-1331.13818	1093.86951	1248.69299	-1317.3645	974.70062	1267.74194	-1253.76074	836.18213	1241.00024	-1311.07263	837.25275	1277.46436	-1273.12549	761.85919	1282.67273	-1192.28674	955.87506	900.45441	-1199.30676	971.36993	1122.23804	-1350.23267	992.07532	923.81635	-1349.99951	997.01355	1092.02344	-1290.48743	646.70569	855.93604	-1314.81714	484.55334	881.36896	-1376.02942	234.198	901.67059	-1387.86047	63.75949	956.31512	-1427.37109	51.18219	1001.60022	-1242.28503	33.79097	960.54156	-1200.86792	646.30304	1196.31287	-1159.79956	527.44751	1170.32507	-1171.56348	264.07346	1175.2356	-1156.11462	76.71438	1138.0658	-1186.01477	47.76658	1088.77612	-1000.6814	51.00064	1150.11328	-1290.56042	1703.28052	977.70593	NaN	NaN	NaN	NaN	NaN	NaN	NaN	NaN	NaN	NaN	NaN	NaN	NaN	NaN	NaN	NaN	NaN	NaN	NaN	NaN	NaN	NaN	NaN	NaN	NaN	NaN	NaN
6	0.05	-1186.63721	1660.96729	920.40326	-1185.64648	1657.0592	1052.776	-1320.97205	1607.08411	924.20367	-1317.5271	1608.1676	1053.98865	-1321.25122	1453.51221	979.08362	-1360.57495	1125.4209	996.14111	-1211.49878	1375.5802	992.76263	-1175.50098	1197.66943	993.90979	-1402.8186	1284.73755	1054.46997	-1245.88794	1404.37952	825.50116	-1227.06091	1202.94641	752.56927	-1215.3689	1090.82275	736.84888	-1149.74683	955.31464	717.52094	-1055.79565	868.07965	759.02405	-1113.41956	841.57953	726.7226	-1048.5835	777.56708	726.80579	-1273.28894	1409.67529	1147.95984	-1328.26953	1215.12024	1234.70178	-1326.37622	1093.17737	1248.9342	-1313.10913	973.88501	1267.81165	-1250.08276	834.88708	1240.8208	-1307.50049	836.35614	1277.36462	-1269.92053	760.81934	1282.50452	-1187.72925	955.35419	900.27173	-1194.09985	970.854	1122.14026	-1345.65698	991.58673	924.01501	-1344.92029	996.55573	1092.26025	-1286.77429	646.33594	856.14789	-1311.59241	484.1954	881.5592	-1374.58081	234.25296	901.82129	-1387.7207	63.90414	956.48157	-1427.26074	51.35472	1001.78973	-1242.25378	33.76906	960.58331	-1195.85693	645.89197	1195.51697	-1154.62012	527.4278	1169.38403	-1161.90137	263.85638	1174.68555	-1142.20215	76.77471	1137.54382	-1171.02454	47.5173	1088.03394	-986.47223	53.35981	1151.76489	-1286.56384	1702.62	978.43573	NaN	NaN	NaN	NaN	NaN	NaN	NaN	NaN	NaN	NaN	NaN	NaN	NaN	NaN	NaN	NaN	NaN	NaN	NaN	NaN	NaN	NaN	NaN	NaN	NaN	NaN	NaN
7	0.06	-1182.58179	1660.69348	920.90863	-1181.11926	1656.78503	1053.26123	-1316.61792	1606.24829	925.11731	-1312.74487	1607.3324	1054.85132	-1316.19617	1453.05994	979.80652	-1355.77344	1125.01672	996.56873	-1206.36023	1375.10413	993.11835	-1170.64258	1197.20093	993.95044	-1397.72839	1284.33997	1055.21985	-1241.24365	1404.11328	825.99451	-1222.7937	1202.63147	752.91614	-1210.85071	1090.4668	737.32666	-1143.57104	955.67908	718.84314	-1048.42529	870.18097	761.14691	-1105.47864	842.57208	728.95111	-1039.82397	779.45618	729.70093	-1267.76587	1408.95166	1148.56958	-1323.06177	1214.39258	1235.13086	-1321.53613	1092.45642	1249.18799	-1308.82715	973.09625	1267.95911	-1246.54932	833.72705	1240.78259	-1303.96924	835.53809	1277.44287	-1266.78247	759.66089	1282.32727	-1183.20825	954.84454	900.11951	-1188.86682	970.38104	1122.03357	-1340.96631	991.09595	924.22052	-1339.77649	996.08112	1092.48279	-1282.92444	645.92542	856.43646	-1308.26099	483.86386	881.79669	-1373.18774	234.35364	901.95996	-1387.56921	64.02796	956.65509	-1427.17871	51.55172	1001.93097	-1242.23462	33.74266	960.60449	-1190.91724	645.6803	1195.07324	-1149.73218	527.41437	1168.63208	-1152.37109	263.60818	1174.27063	-1128.50549	76.99221	1137.38513	-1156.39148	47.41839	1087.39783	-972.31775	55.5541	1152.91333	-1282.46167	1701.94556	979.25714	NaN	NaN	NaN	NaN	NaN	NaN	NaN	NaN	NaN	NaN	NaN	NaN	NaN	NaN	NaN	NaN	NaN	NaN	NaN	NaN	NaN	NaN	NaN	NaN	NaN	NaN	NaN
